# xmcd
#
# Track frame offsets: 
#        150
#        19472
#        41584
#        58389
#        80231
#        102349
#        121810
#        139657
#        162751
#        184273
#        199040
#        219324
#
# Disc length: 3210 seconds
#
# Revision: 3
# Processed by: cddbd v1.4PL0 Copyright (c) Steve Scherf et al.
# Submitted via: ExactAudioCopy v0.90b4
#
DISCID=ae0c880c
DTITLE=Emmylou Harris - Wrecking Ball
DYEAR=1995
DGENRE=Country
TTITLE0=Where Will I Be
TTITLE1=Goodbye
TTITLE2=All My Tears
TTITLE3=Wrecking Ball
TTITLE4=Goin' Back To Harlan
TTITLE5=Deeper Well
TTITLE6=Every Grain Of Sand
TTITLE7=Sweet Old World
TTITLE8=May This Be Love
TTITLE9=Orphan Girl
TTITLE10=Blackhawk
TTITLE11=Waltz Across Texas Tonight
EXTD=
EXTT0=
EXTT1=
EXTT2=
EXTT3=
EXTT4=
EXTT5=
EXTT6=
EXTT7=
EXTT8=
EXTT9=
EXTT10=
EXTT11=
PLAYORDER=
